<mxfile host="app.diagrams.net" modified="2024-04-29T03:42:50.261Z" agent="Mozilla/5.0 (X11; Linux x86_64) AppleWebKit/537.36 (KHTML, like Gecko) Chrome/124.0.0.0 Safari/537.36" etag="7MiXD803SW2JkXdpre_E" version="24.3.1" type="github">
  <diagram id="R2lEEEUBdFMjLlhIrx00" name="Page-1">
    <mxGraphModel dx="1420" dy="833" grid="1" gridSize="10" guides="1" tooltips="1" connect="1" arrows="1" fold="1" page="1" pageScale="1" pageWidth="850" pageHeight="1100" math="0" shadow="0" extFonts="Permanent Marker^https://fonts.googleapis.com/css?family=Permanent+Marker">
      <root>
        <mxCell id="0" />
        <mxCell id="1" parent="0" />
        <mxCell id="c9D_xtKekfF-7B8nMfQG-1" value="" style="ellipse;html=1;shape=startState;fillColor=#000000;strokeColor=#ff0000;" vertex="1" parent="1">
          <mxGeometry x="100" y="190" width="30" height="30" as="geometry" />
        </mxCell>
        <mxCell id="c9D_xtKekfF-7B8nMfQG-2" value="" style="edgeStyle=orthogonalEdgeStyle;html=1;verticalAlign=bottom;endArrow=open;endSize=8;strokeColor=#ff0000;rounded=0;" edge="1" source="c9D_xtKekfF-7B8nMfQG-1" parent="1">
          <mxGeometry relative="1" as="geometry">
            <mxPoint x="115" y="280" as="targetPoint" />
          </mxGeometry>
        </mxCell>
        <mxCell id="c9D_xtKekfF-7B8nMfQG-3" value="memilih obat" style="rounded=1;whiteSpace=wrap;html=1;arcSize=40;fontColor=#000000;fillColor=#ffffc0;strokeColor=#ff0000;" vertex="1" parent="1">
          <mxGeometry x="60" y="480" width="120" height="40" as="geometry" />
        </mxCell>
        <mxCell id="c9D_xtKekfF-7B8nMfQG-4" value="" style="edgeStyle=orthogonalEdgeStyle;html=1;verticalAlign=bottom;endArrow=open;endSize=8;strokeColor=#ff0000;rounded=0;" edge="1" source="c9D_xtKekfF-7B8nMfQG-3" parent="1">
          <mxGeometry relative="1" as="geometry">
            <mxPoint x="120" y="580" as="targetPoint" />
            <Array as="points">
              <mxPoint x="120" y="570" />
              <mxPoint x="120" y="570" />
            </Array>
          </mxGeometry>
        </mxCell>
        <mxCell id="c9D_xtKekfF-7B8nMfQG-14" value="Composite State" style="swimlane;fontStyle=1;align=center;verticalAlign=middle;childLayout=stackLayout;horizontal=1;startSize=30;horizontalStack=0;resizeParent=0;resizeLast=1;container=0;fontColor=#000000;collapsible=0;rounded=1;arcSize=30;strokeColor=#ff0000;fillColor=#ffffc0;swimlaneFillColor=#ffffc0;dropTarget=0;" vertex="1" parent="1">
          <mxGeometry x="440" y="290" width="160" height="60" as="geometry" />
        </mxCell>
        <mxCell id="c9D_xtKekfF-7B8nMfQG-15" value="Subtitle" style="text;html=1;strokeColor=none;fillColor=none;align=center;verticalAlign=middle;spacingLeft=4;spacingRight=4;whiteSpace=wrap;overflow=hidden;rotatable=0;fontColor=#000000;" vertex="1" parent="c9D_xtKekfF-7B8nMfQG-14">
          <mxGeometry y="30" width="160" height="30" as="geometry" />
        </mxCell>
        <mxCell id="c9D_xtKekfF-7B8nMfQG-16" value="" style="edgeStyle=orthogonalEdgeStyle;html=1;verticalAlign=bottom;endArrow=open;endSize=8;strokeColor=#ff0000;rounded=0;" edge="1" source="c9D_xtKekfF-7B8nMfQG-14" parent="1">
          <mxGeometry relative="1" as="geometry">
            <mxPoint x="520" y="410" as="targetPoint" />
          </mxGeometry>
        </mxCell>
        <mxCell id="c9D_xtKekfF-7B8nMfQG-17" value="Condition" style="rhombus;whiteSpace=wrap;html=1;fontColor=#000000;fillColor=#ffffc0;strokeColor=#ff0000;" vertex="1" parent="1">
          <mxGeometry x="630" y="300" width="80" height="40" as="geometry" />
        </mxCell>
        <mxCell id="c9D_xtKekfF-7B8nMfQG-18" value="no" style="edgeStyle=orthogonalEdgeStyle;html=1;align=left;verticalAlign=bottom;endArrow=open;endSize=8;strokeColor=#ff0000;rounded=0;" edge="1" source="c9D_xtKekfF-7B8nMfQG-17" parent="1">
          <mxGeometry x="-1" relative="1" as="geometry">
            <mxPoint x="810" y="320" as="targetPoint" />
          </mxGeometry>
        </mxCell>
        <mxCell id="c9D_xtKekfF-7B8nMfQG-19" value="yes" style="edgeStyle=orthogonalEdgeStyle;html=1;align=left;verticalAlign=top;endArrow=open;endSize=8;strokeColor=#ff0000;rounded=0;" edge="1" source="c9D_xtKekfF-7B8nMfQG-17" parent="1">
          <mxGeometry x="-1" relative="1" as="geometry">
            <mxPoint x="670" y="400" as="targetPoint" />
          </mxGeometry>
        </mxCell>
        <mxCell id="c9D_xtKekfF-7B8nMfQG-20" value="" style="shape=line;html=1;strokeWidth=6;strokeColor=#ff0000;" vertex="1" parent="1">
          <mxGeometry x="530" y="120" width="200" height="10" as="geometry" />
        </mxCell>
        <mxCell id="c9D_xtKekfF-7B8nMfQG-21" value="" style="edgeStyle=orthogonalEdgeStyle;html=1;verticalAlign=bottom;endArrow=open;endSize=8;strokeColor=#ff0000;rounded=0;" edge="1" source="c9D_xtKekfF-7B8nMfQG-20" parent="1">
          <mxGeometry relative="1" as="geometry">
            <mxPoint x="630" y="210" as="targetPoint" />
          </mxGeometry>
        </mxCell>
        <mxCell id="c9D_xtKekfF-7B8nMfQG-22" value="login" style="rounded=1;whiteSpace=wrap;html=1;arcSize=40;fontColor=#000000;fillColor=#ffffc0;strokeColor=#ff0000;" vertex="1" parent="1">
          <mxGeometry x="55" y="280" width="120" height="40" as="geometry" />
        </mxCell>
        <mxCell id="c9D_xtKekfF-7B8nMfQG-23" value="" style="edgeStyle=orthogonalEdgeStyle;html=1;verticalAlign=bottom;endArrow=open;endSize=8;strokeColor=#ff0000;rounded=0;entryX=0;entryY=0.5;entryDx=0;entryDy=0;" edge="1" parent="1" source="c9D_xtKekfF-7B8nMfQG-22" target="c9D_xtKekfF-7B8nMfQG-24">
          <mxGeometry relative="1" as="geometry">
            <mxPoint x="115" y="400" as="targetPoint" />
            <Array as="points">
              <mxPoint x="115" y="370" />
            </Array>
          </mxGeometry>
        </mxCell>
        <mxCell id="c9D_xtKekfF-7B8nMfQG-24" value="verifikasi" style="rhombus;whiteSpace=wrap;html=1;fontColor=#000000;fillColor=#ffffc0;strokeColor=#ff0000;" vertex="1" parent="1">
          <mxGeometry x="290" y="350" width="80" height="40" as="geometry" />
        </mxCell>
        <mxCell id="c9D_xtKekfF-7B8nMfQG-25" value="no" style="edgeStyle=orthogonalEdgeStyle;html=1;align=left;verticalAlign=bottom;endArrow=open;endSize=8;strokeColor=#ff0000;rounded=0;entryX=1;entryY=0.5;entryDx=0;entryDy=0;exitX=0.5;exitY=0;exitDx=0;exitDy=0;" edge="1" parent="1" source="c9D_xtKekfF-7B8nMfQG-24" target="c9D_xtKekfF-7B8nMfQG-22">
          <mxGeometry x="-1" relative="1" as="geometry">
            <mxPoint x="250" y="420" as="targetPoint" />
          </mxGeometry>
        </mxCell>
        <mxCell id="c9D_xtKekfF-7B8nMfQG-26" value="yes" style="edgeStyle=orthogonalEdgeStyle;html=1;align=left;verticalAlign=top;endArrow=open;endSize=8;strokeColor=#ff0000;rounded=0;" edge="1" parent="1" source="c9D_xtKekfF-7B8nMfQG-24">
          <mxGeometry x="-1" relative="1" as="geometry">
            <mxPoint x="120" y="480" as="targetPoint" />
            <Array as="points">
              <mxPoint x="330" y="420" />
            </Array>
          </mxGeometry>
        </mxCell>
        <mxCell id="c9D_xtKekfF-7B8nMfQG-27" value="melakukan pemesanan" style="rounded=1;whiteSpace=wrap;html=1;arcSize=40;fontColor=#000000;fillColor=#ffffc0;strokeColor=#ff0000;" vertex="1" parent="1">
          <mxGeometry x="60" y="580" width="120" height="40" as="geometry" />
        </mxCell>
        <mxCell id="c9D_xtKekfF-7B8nMfQG-28" value="" style="edgeStyle=orthogonalEdgeStyle;html=1;verticalAlign=bottom;endArrow=open;endSize=8;strokeColor=#ff0000;rounded=0;" edge="1" parent="1" source="c9D_xtKekfF-7B8nMfQG-27">
          <mxGeometry relative="1" as="geometry">
            <mxPoint x="120" y="680" as="targetPoint" />
            <Array as="points">
              <mxPoint x="120" y="670" />
              <mxPoint x="120" y="670" />
            </Array>
          </mxGeometry>
        </mxCell>
        <mxCell id="c9D_xtKekfF-7B8nMfQG-29" value="konfirmasi pemesanan" style="rounded=1;whiteSpace=wrap;html=1;arcSize=40;fontColor=#000000;fillColor=#ffffc0;strokeColor=#ff0000;" vertex="1" parent="1">
          <mxGeometry x="60" y="680" width="120" height="40" as="geometry" />
        </mxCell>
        <mxCell id="c9D_xtKekfF-7B8nMfQG-30" value="" style="edgeStyle=orthogonalEdgeStyle;html=1;verticalAlign=bottom;endArrow=open;endSize=8;strokeColor=#ff0000;rounded=0;" edge="1" parent="1" source="c9D_xtKekfF-7B8nMfQG-29">
          <mxGeometry relative="1" as="geometry">
            <mxPoint x="120" y="780" as="targetPoint" />
            <Array as="points">
              <mxPoint x="120" y="770" />
              <mxPoint x="120" y="770" />
            </Array>
          </mxGeometry>
        </mxCell>
        <mxCell id="c9D_xtKekfF-7B8nMfQG-31" value="" style="ellipse;html=1;shape=endState;fillColor=#000000;strokeColor=#ff0000;" vertex="1" parent="1">
          <mxGeometry x="105" y="780" width="30" height="30" as="geometry" />
        </mxCell>
      </root>
    </mxGraphModel>
  </diagram>
</mxfile>
